<svg width="80" height="80" viewBox="0 0 80 80" fill="none" xmlns="http://www.w3.org/2000/svg">
<path d="M60.2122 38.3831C60.2339 38.7942 60.2429 39.2047 60.2429 39.6218C60.2429 53.2194 49.2189 64.2435 35.6218 64.2435C22.0247 64.2435 11 53.2194 11 39.6218C11 26.0242 22.0242 15 35.6218 15C46.2877 15 55.3703 21.7834 58.7931 31.2704" stroke="#006B61" stroke-linecap="round" stroke-linejoin="round"/>
<path d="M58.6968 34.8175C58.7003 34.5368 58.8138 34.2687 59.0129 34.071C59.212 33.8731 59.4808 33.7615 59.7615 33.7599C59.9025 33.7576 60.0427 33.7841 60.1732 33.838C60.3036 33.892 60.4216 33.9721 60.5198 34.0735C60.6214 34.1701 60.7018 34.2867 60.7559 34.416C60.8098 34.5454 60.8362 34.6845 60.8333 34.8246C60.8358 34.9658 60.8092 35.1059 60.7553 35.2363C60.7014 35.3668 60.6212 35.4847 60.5198 35.583C60.4232 35.6846 60.3066 35.7649 60.1772 35.8188C60.0479 35.8728 59.9088 35.8993 59.7686 35.8966C59.6272 35.8967 59.4872 35.8689 59.3567 35.8146C59.226 35.7603 59.1075 35.6808 59.0079 35.5804C58.9082 35.4801 58.8294 35.361 58.776 35.2301C58.7225 35.099 58.6956 34.9588 58.6968 34.8175Z" fill="#006B61"/>
<path d="M50.9442 41.4997C50.9442 40.798 51.0863 40.184 51.3702 39.6578C51.6543 39.1232 52.0427 38.7138 52.5355 38.4298C53.0368 38.1374 53.6006 37.9913 54.2271 37.9913C54.8286 37.9913 55.3716 38.1374 55.856 38.4298C56.3405 38.7221 56.6955 39.1023 56.9211 39.57V35.6606H57.7982V44.9329H56.9211V43.4042C56.7123 43.8804 56.3698 44.273 55.8937 44.5822C55.4175 44.8828 54.8579 45.0333 54.2146 45.0333C53.5882 45.0333 53.0242 44.887 52.5231 44.5946C52.0302 44.3023 51.6418 43.8887 51.3577 43.3542C51.0821 42.8195 50.9442 42.2013 50.9442 41.4997ZM56.9211 41.5122C56.9211 40.9609 56.8084 40.4764 56.5828 40.0587C56.3573 39.6411 56.0481 39.3195 55.6555 39.0939C55.2713 38.8684 54.8453 38.7556 54.3775 38.7556C53.893 38.7556 53.4587 38.8642 53.0744 39.0813C52.6901 39.2986 52.3853 39.616 52.1597 40.0337C51.9425 40.443 51.8339 40.9316 51.8339 41.4997C51.8339 42.0594 51.9425 42.5522 52.1597 42.9782C52.3853 43.3959 52.6901 43.7175 53.0744 43.9431C53.4587 44.1603 53.893 44.2689 54.3775 44.2689C54.8453 44.2689 55.2713 44.1561 55.6555 43.9306C56.0481 43.705 56.3573 43.3834 56.5828 42.9657C56.8084 42.548 56.9211 42.0635 56.9211 41.5122Z" fill="#006B61"/>
<path d="M62.2629 41.4997C62.2629 40.7979 62.4009 40.1839 62.6765 39.6577C62.9605 39.1231 63.349 38.7138 63.8418 38.4297C64.3429 38.1373 64.9069 37.9912 65.5334 37.9912C66.1849 37.9912 66.7446 38.1416 67.2124 38.4423C67.6885 38.743 68.031 39.1273 68.2398 39.595V38.0914H69.1169V44.9328H68.2398V43.4168C68.0227 43.8845 67.676 44.2729 67.1998 44.5821C66.7321 44.8828 66.1724 45.0332 65.5209 45.0332C64.9027 45.0332 64.3429 44.8869 63.8418 44.5946C63.349 44.3022 62.9605 43.8887 62.6765 43.3541C62.4009 42.8194 62.2629 42.2013 62.2629 41.4997ZM68.2398 41.5121C68.2398 40.9608 68.1271 40.4763 67.9016 40.0586C67.676 39.641 67.3669 39.3194 66.9743 39.0939C66.59 38.8683 66.164 38.7555 65.6962 38.7555C65.2117 38.7555 64.7774 38.8642 64.3931 39.0813C64.0088 39.2985 63.704 39.616 63.4784 40.0336C63.2612 40.4429 63.1527 40.9316 63.1527 41.4997C63.1527 42.0593 63.2612 42.5521 63.4784 42.9781C63.704 43.3958 64.0088 43.7175 64.3931 43.943C64.7774 44.1602 65.2117 44.2688 65.6962 44.2688C66.164 44.2688 66.59 44.1561 66.9743 43.9305C67.3669 43.705 67.676 43.3834 67.9016 42.9657C68.1271 42.548 68.2398 42.0635 68.2398 41.5121Z" fill="#006B61"/>
</svg>
